<svg xmlns="http://www.w3.org/2000/svg" xmlns:xlink="http://www.w3.org/1999/xlink" width="790" height="468" viewBox="0 0 790 468">
    <defs>
        <path id="c62kdy1yxa" d="M0 0.274L58.528 0.274 58.528 58.802 0 58.802z"/>
        <path id="6lfr8ovnnc" d="M0 0.048L58.528 0.048 58.528 44.789 0 44.789z"/>
        <path id="px2uxknsie" d="M0.962 0.397L10.391 0.397 10.391 18.858 0.962 18.858z"/>
    </defs>
    <g fill="none" fill-rule="evenodd">
        <g>
            <g>
                <path fill="#E9E9E9" d="M189 283c-16.016 0-29-13.023-29-29.09V239c0 16.066 12.984 29.09 29 29.09V283zM784 275.096c0 16.266-13.17 29.453-29.416 29.453h-99.167C639.169 304.549 626 317.734 626 334v-15.096c0-16.266 13.17-29.451 29.417-29.451h99.167C770.831 289.453 784 276.266 784 260v15.096zM244 372c0-16.265-13.152-29.451-29.378-29.451H103.378C87.154 342.549 74 329.362 74 313.096V298c0 16.266 13.154 29.453 29.378 29.453h111.244c16.226 0 29.378 13.186 29.378 29.45V372zM402 460H191.378C175.152 460 162 446.977 162 430.91V416c0 16.067 13.152 29.09 29.378 29.09H402V460zM712 202c0 16.065-12.982 29.09-29 29.09V246c16.018 0 29-13.025 29-29.09V202zM790 378c0 16.065-13.152 29.09-29.378 29.09H550V422h210.622C776.848 422 790 408.975 790 392.91V378z" transform="translate(-144 -767) translate(144 767)"/>
                <path fill="#F3F3F3" d="M760.564 348.249H655.043c-16.258 0-29.437-13.151-29.437-29.375 0-16.222 13.179-29.375 29.437-29.375h99.238c16.256 0 29.436-13.15 29.436-29.375 0-16.224-13.18-29.374-29.436-29.374H682.91c16.259 0 29.437-13.153 29.437-29.375 0-16.223-13.178-29.375-29.437-29.375H471.868v58.75h71.37v58.75H444v58.749h105.521V407h211.043C776.82 407 790 393.848 790 377.625c0-16.225-13.18-29.376-29.436-29.376M314.52 327.5v-58.75h15.09V210H188.894c-16.261 0-29.443 13.152-29.443 29.376 0 16.223 13.182 29.374 29.443 29.374H103.44C87.181 268.75 74 281.902 74 298.124c0 16.224 13.18 29.377 29.441 29.377h111.48c16.26 0 29.442 13.15 29.442 29.375 0 16.222-13.182 29.374-29.441 29.374h-23.873c-16.26 0-29.441 13.151-29.441 29.374 0 16.225 13.18 29.376 29.441 29.376h211.078v-58.75H426V327.5H314.52z" transform="translate(-144 -767) translate(144 767)"/>
                <g transform="translate(-144 -767) translate(144 767) translate(0 268)">
                    <mask id="n3k065atlb" fill="#fff">
                        <use xlink:href="#c62kdy1yxa"/>
                    </mask>
                    <path fill="#F3F3F3" d="M29.263.274C13.103.274 0 13.374 0 29.537c0 16.161 13.102 29.265 29.263 29.265s29.265-13.104 29.265-29.265C58.528 13.375 45.424.274 29.263.274" mask="url(#n3k065atlb)"/>
                </g>
                <g transform="translate(-144 -767) translate(144 767) translate(0 298)">
                    <mask id="j5lg7c5sid" fill="#fff">
                        <use xlink:href="#6lfr8ovnnc"/>
                    </mask>
                    <path fill="#E9E9E9" d="M58.528.048c0 16.335-13.103 29.58-29.265 29.58C13.102 29.628-.001 16.383-.001.048V15.21c0 16.334 13.103 29.58 29.264 29.58 16.162 0 29.265-13.246 29.265-29.58V.048z" mask="url(#j5lg7c5sid)"/>
                </g>
                <path fill="#EEE" d="M587 176L301 176 323.633 148.999 301 122 587 122 564.367 148.999z" transform="translate(-144 -767) translate(144 767)"/>
                <path fill="#999998" d="M311.173 171.019h266.654l-16.46-19.649c-1.396-1.663-1.396-4.079 0-5.742l16.46-19.647H311.173l16.46 19.647c1.396 1.663 1.396 4.08 0 5.742l-16.46 19.649zM587.474 180h-285.95c-1.754 0-3.35-1.007-4.095-2.584-.746-1.576-.506-3.438.617-4.778l20.222-24.139-20.222-24.137c-1.123-1.338-1.363-3.202-.617-4.778.745-1.577 2.34-2.584 4.095-2.584h285.95c1.755 0 3.352 1.007 4.097 2.584.746 1.576.506 3.44-.617 4.778l-20.222 24.137 20.222 24.14c1.123 1.339 1.363 3.201.617 4.777-.745 1.577-2.342 2.584-4.097 2.584z" transform="translate(-144 -767) translate(144 767)"/>
                <path fill="#FEFEFE" d="M587.458 176L301.542 176 294 464 595 464z" transform="translate(-144 -767) translate(144 767)"/>
                <path fill="#999998" d="M298.168 458.97h291.664l-7.306-278.94H305.474l-7.306 278.94zM594.476 468H293.525c-1.222 0-2.39-.492-3.241-1.364-.853-.873-1.316-2.053-1.284-3.269l7.542-287.969c.065-2.447 2.071-4.398 4.523-4.398h285.87c2.452 0 4.458 1.95 4.523 4.398L599 463.368c.03 1.215-.431 2.395-1.285 3.268-.85.872-2.02 1.364-3.24 1.364z" transform="translate(-144 -767) translate(144 767)"/>
                <path fill="#FEFEFE" d="M301 122L301 176" transform="translate(-144 -767) translate(144 767)"/>
                <path fill="#999998" d="M301.5 180c-2.486 0-4.5-2.01-4.5-4.49v-54.02c0-2.48 2.014-4.49 4.5-4.49s4.5 2.01 4.5 4.49v54.02c0 2.48-2.014 4.49-4.5 4.49" transform="translate(-144 -767) translate(144 767)"/>
                <path fill="#FEFEFE" d="M587 122L587 176" transform="translate(-144 -767) translate(144 767)"/>
                <path fill="#999998" d="M587.5 180c-2.486 0-4.5-2.01-4.5-4.49v-54.02c0-2.48 2.014-4.49 4.5-4.49s4.5 2.01 4.5 4.49v54.02c0 2.48-2.014 4.49-4.5 4.49" transform="translate(-144 -767) translate(144 767)"/>
                <path fill="#FEFEFE" d="M444 68L444 5" transform="translate(-144 -767) translate(144 767)"/>
                <path fill="#999998" d="M444.5 72c-2.486 0-4.5-2.014-4.5-4.5v-9c0-2.486 2.014-4.5 4.5-4.5s4.5 2.014 4.5 4.5v9c0 2.486-2.014 4.5-4.5 4.5M444.5 48c-2.486 0-4.5-2.028-4.5-4.53V28.53c0-2.502 2.014-4.53 4.5-4.53s4.5 2.028 4.5 4.53v14.94c0 2.502-2.014 4.53-4.5 4.53" transform="translate(-144 -767) translate(144 767)"/>
                <g transform="translate(-144 -767) translate(144 767) translate(438)">
                    <mask id="u2ds4ndwsf" fill="#fff">
                        <use xlink:href="#px2uxknsie"/>
                    </mask>
                    <path fill="#999998" d="M5.676 18.858c-2.603 0-4.714-2.066-4.714-4.615V5.012c0-2.55 2.11-4.615 4.714-4.615 2.604 0 4.715 2.066 4.715 4.615v9.23c0 2.55-2.11 4.616-4.715 4.616" mask="url(#u2ds4ndwsf)"/>
                </g>
                <path fill="#FEFEFE" d="M488 86L532 42" transform="translate(-144 -767) translate(144 767)"/>
                <path fill="#999998" d="M488.394 90c-1.125 0-2.248-.43-3.107-1.287-1.716-1.715-1.716-4.498 0-6.213l6.213-6.213c1.716-1.716 4.496-1.716 6.213 0 1.716 1.715 1.716 4.498 0 6.213l-6.213 6.213c-.858.858-1.982 1.287-3.106 1.287M504.617 74c-1.182 0-2.362-.45-3.264-1.353-1.804-1.802-1.804-4.724 0-6.527l10.766-10.767c1.8-1.804 4.725-1.804 6.528 0 1.804 1.802 1.804 4.724 0 6.527l-10.766 10.767c-.9.902-2.082 1.353-3.264 1.353M526.394 52c-1.125 0-2.248-.43-3.107-1.287-1.716-1.715-1.716-4.498 0-6.213l6.213-6.213c1.716-1.716 4.496-1.716 6.213 0 1.716 1.715 1.716 4.498 0 6.213l-6.213 6.213c-.858.858-1.982 1.287-3.106 1.287" transform="translate(-144 -767) translate(144 767)"/>
                <path fill="#FEFEFE" d="M400 86L356 42" transform="translate(-144 -767) translate(144 767)"/>
                <path fill="#999998" d="M400.606 90c-1.124 0-2.248-.43-3.106-1.287l-6.213-6.213c-1.716-1.715-1.716-4.498 0-6.213 1.717-1.716 4.497-1.716 6.213 0l6.213 6.213c1.716 1.715 1.716 4.498 0 6.213-.859.858-1.982 1.287-3.107 1.287M383.383 74c-1.182 0-2.362-.45-3.264-1.353l-10.766-10.766c-1.804-1.802-1.804-4.726 0-6.528 1.803-1.804 4.724-1.804 6.528 0l10.766 10.766c1.804 1.802 1.804 4.726 0 6.528-.902.902-2.082 1.353-3.264 1.353M362.606 52c-1.124 0-2.248-.43-3.106-1.287l-6.213-6.213c-1.716-1.715-1.716-4.498 0-6.213 1.717-1.716 4.497-1.716 6.213 0l6.213 6.213c1.716 1.715 1.716 4.498 0 6.213-.859.858-1.982 1.287-3.107 1.287" transform="translate(-144 -767) translate(144 767)"/>
                <path fill="#FEFEFE" d="M400 226.5c0 5.8-4.702 10.5-10.5 10.5s-10.5-4.7-10.5-10.5c0-5.798 4.702-10.5 10.5-10.5s10.5 4.702 10.5 10.5" transform="translate(-144 -767) translate(144 767)"/>
                <path fill="#999998" d="M389 220.015c-3.3 0-5.985 2.685-5.985 5.984 0 3.301 2.685 5.986 5.985 5.986 3.3 0 5.985-2.685 5.985-5.986 0-3.3-2.685-5.984-5.985-5.984M389 241c-8.272 0-15-6.73-15-15s6.728-15 15-15 15 6.73 15 15-6.728 15-15 15" transform="translate(-144 -767) translate(144 767)"/>
                <path fill="#FEFEFE" d="M509 226.5c0 5.8-4.702 10.5-10.5 10.5s-10.5-4.7-10.5-10.5c0-5.798 4.702-10.5 10.5-10.5s10.5 4.702 10.5 10.5" transform="translate(-144 -767) translate(144 767)"/>
                <path fill="#999998" d="M499 220.015c-3.3 0-5.985 2.685-5.985 5.984 0 3.301 2.685 5.986 5.985 5.986 3.3 0 5.985-2.685 5.985-5.986 0-3.3-2.685-5.984-5.985-5.984M499 241c-8.272 0-15-6.73-15-15s6.728-15 15-15 15 6.73 15 15-6.728 15-15 15" transform="translate(-144 -767) translate(144 767)"/>
                <path fill="#999998" d="M444.5 296c-32.81 0-59.5-26.676-59.5-59.464 0-2.505 2.032-4.536 4.539-4.536 2.507 0 4.539 2.03 4.539 4.536 0 27.786 22.62 50.392 50.422 50.392 27.803 0 50.422-22.606 50.422-50.392 0-2.505 2.032-4.536 4.539-4.536 2.507 0 4.539 2.03 4.539 4.536C504 269.324 477.31 296 444.5 296" transform="translate(-144 -767) translate(144 767)"/>
            </g>
        </g>
    </g>
</svg>
