<svg xmlns="http://www.w3.org/2000/svg" xmlns:xlink="http://www.w3.org/1999/xlink" width="814" height="415" viewBox="0 0 814 415">
    <defs>
        <path id="48ohpzs7va" d="M0 0.287L269.226 0.287 269.226 39.633 0 39.633z"/>
        <path id="zbkxhs2q3c" d="M0.036 0.266L52.71 0.266 52.71 52.942 0.036 52.942z"/>
        <path id="p69l5vo8oe" d="M0 0.953L269.226 0.953 269.226 53.628 0 53.628z"/>
    </defs>
    <g fill="none" fill-rule="evenodd">
        <g>
            <g>
                <path fill="#E9E9E9" d="M699 377.555C699 392.16 687.284 404 672.831 404H495v-13.555h177.831c14.453 0 26.169-11.84 26.169-26.445v13.555zM746 272.464c0 14.506-11.755 26.269-26.256 26.269h-46.49c-14.5 0-26.254 11.76-26.254 26.267v-13.464c0-14.508 11.755-26.267 26.255-26.267h46.489C734.245 285.269 746 273.506 746 259v13.464zM659 220.555C659 235.16 647.36 247 633 247v-13.555c14.36 0 26-11.84 26-26.445v13.555zM774 167.555C774 182.16 762.302 194 747.873 194H633v-13.555h114.873c14.43 0 26.127-11.84 26.127-26.445v13.555zM322 247H79.184C64.724 247 53 235.16 53 220.555V207c0 14.606 11.724 26.445 26.184 26.445H322V247z" transform="translate(-218 -960) translate(218 960)"/>
                <g transform="translate(-218 -960) translate(218 960) translate(0 312)">
                    <mask id="1hyk58sneb" fill="#fff">
                        <use xlink:href="#48ohpzs7va"/>
                    </mask>
                    <path fill="#E9E9E9" d="M269.226 26.3H26.206C11.734 26.3 0 14.653 0 .286v13.334c0 14.366 11.734 26.012 26.208 26.012h243.019V26.299z" mask="url(#1hyk58sneb)"/>
                </g>
                <path fill="#F3F3F3" d="M775 154.2c0-14.47-11.751-26.2-26.247-26.2H505.367v52.4H455v52.4h86.471v52.4h-46.47V390h178.353c14.495 0 26.245-11.73 26.245-26.201 0-14.47-11.75-26.2-26.245-26.2-14.495 0-26.245-11.73-26.245-26.199 0-14.47 11.749-26.2 26.243-26.2h46.471c14.496 0 26.246-11.73 26.246-26.2 0-14.47-11.75-26.2-26.246-26.2h-86.47c14.493 0 26.245-11.73 26.245-26.2 0-14.47-11.752-26.2-26.246-26.2h115.401c14.496 0 26.247-11.731 26.247-26.2" transform="translate(-218 -960) translate(218 960)"/>
                <g transform="translate(-218 -960) translate(218 960) translate(761 233)">
                    <mask id="gk3b87d11d" fill="#fff">
                        <use xlink:href="#zbkxhs2q3c"/>
                    </mask>
                    <path fill="#F3F3F3" d="M26.373.266C11.828.266.036 12.057.036 26.604c0 14.544 11.792 26.338 26.337 26.338S52.71 41.148 52.71 26.604C52.71 12.057 40.918.266 26.373.266" mask="url(#gk3b87d11d)"/>
                </g>
                <g transform="translate(-218 -960) translate(218 960) translate(0 285)">
                    <mask id="j5bm2anruf" fill="#fff">
                        <use xlink:href="#p69l5vo8oe"/>
                    </mask>
                    <path fill="#F3F3F3" d="M0 27.291c0 14.545 11.732 26.337 26.207 26.337h243.019V.953H26.207C11.732.953 0 12.745 0 27.29" mask="url(#j5bm2anruf)"/>
                </g>
                <path fill="#F3F3F3" d="M79.184 181C64.724 181 53 192.641 53 207s11.724 26 26.184 26H322v-52H79.184z" transform="translate(-218 -960) translate(218 960)"/>
                <path fill="#E9E9E9" d="M814 272.555C814 287.159 802.36 299 788 299c-14.359 0-26-11.841-26-26.445V259c0 14.604 11.641 26.445 26 26.445 14.36 0 26-11.841 26-26.445v13.555z" transform="translate(-218 -960) translate(218 960)"/>
                <path fill="#FEFEFE" d="M555.23 114H198.77L145 239.507h174.336C319.336 271.26 345.154 297 377 297c31.848 0 57.666-25.74 57.666-57.493H609L555.23 114z" transform="translate(-218 -960) translate(218 960)"/>
                <path fill="#999998" d="M151.14 235.48h168.203c2.229 0 4.032 1.8 4.032 4.02 0 29.48 24.056 53.46 53.625 53.46 29.57 0 53.625-23.98 53.625-53.46 0-2.22 1.805-4.02 4.032-4.02h168.204l-50.317-117.44H201.456L151.14 235.48zM377 301c-32.662 0-59.475-25.434-61.559-57.48h-170.41c-1.354 0-2.617-.678-3.365-1.805-.746-1.126-.873-2.552-.342-3.794l53.762-125.481c.634-1.48 2.094-2.44 3.708-2.44h356.412c1.615 0 3.074.96 3.709 2.44l53.762 125.48c.53 1.243.402 2.669-.343 3.795-.747 1.127-2.01 1.805-3.366 1.805H438.56C436.477 275.566 409.663 301 377 301z" transform="translate(-218 -960) translate(218 960)"/>
                <path fill="#E9E9E9" d="M525.922 172H227.08L182 287.905h146.156C328.156 317.23 349.8 341 376.5 341c26.7 0 48.343-23.77 48.343-53.095H571L525.922 172z" transform="translate(-218 -960) translate(218 960)"/>
                <path fill="#999998" d="M246.613 174.366H235.88c-1.481 0-2.683-1.202-2.683-2.683 0-1.481 1.202-2.683 2.683-2.683h10.733c1.481 0 2.683 1.202 2.683 2.683 0 1.481-1.202 2.683-2.683 2.683zm21.466 0h-10.733c-1.481 0-2.683-1.202-2.683-2.683 0-1.481 1.202-2.683 2.683-2.683h10.733c1.481 0 2.684 1.202 2.684 2.683 0 1.481-1.203 2.683-2.684 2.683zm21.466 0h-10.733c-1.48 0-2.683-1.202-2.683-2.683 0-1.481 1.202-2.683 2.683-2.683h10.733c1.482 0 2.684 1.202 2.684 2.683 0 1.481-1.202 2.683-2.684 2.683zm21.467 0h-10.734c-1.48 0-2.683-1.202-2.683-2.683 0-1.481 1.202-2.683 2.683-2.683h10.734c1.48 0 2.683 1.202 2.683 2.683 0 1.481-1.202 2.683-2.683 2.683zm21.466 0h-10.733c-1.482 0-2.684-1.202-2.684-2.683 0-1.481 1.202-2.683 2.684-2.683h10.733c1.48 0 2.683 1.202 2.683 2.683 0 1.481-1.202 2.683-2.683 2.683zm21.466 0H343.21c-1.481 0-2.684-1.202-2.684-2.683 0-1.481 1.203-2.683 2.684-2.683h10.733c1.481 0 2.683 1.202 2.683 2.683 0 1.481-1.202 2.683-2.683 2.683zm21.466 0h-10.733c-1.481 0-2.683-1.202-2.683-2.683 0-1.481 1.202-2.683 2.683-2.683h10.733c1.481 0 2.683 1.202 2.683 2.683 0 1.481-1.202 2.683-2.683 2.683zm21.466 0h-10.733c-1.481 0-2.683-1.202-2.683-2.683 0-1.481 1.202-2.683 2.683-2.683h10.733c1.481 0 2.683 1.202 2.683 2.683 0 1.481-1.202 2.683-2.683 2.683zm21.466 0H407.61c-1.481 0-2.683-1.202-2.683-2.683 0-1.481 1.202-2.683 2.683-2.683h10.733c1.481 0 2.684 1.202 2.684 2.683 0 1.481-1.203 2.683-2.684 2.683zm21.466 0h-10.733c-1.48 0-2.683-1.202-2.683-2.683 0-1.481 1.202-2.683 2.683-2.683h10.733c1.482 0 2.684 1.202 2.684 2.683 0 1.481-1.202 2.683-2.684 2.683zm21.467 0h-10.733c-1.482 0-2.684-1.202-2.684-2.683 0-1.481 1.202-2.683 2.684-2.683h10.733c1.48 0 2.683 1.202 2.683 2.683 0 1.481-1.202 2.683-2.683 2.683zm21.466 0h-10.733c-1.482 0-2.684-1.202-2.684-2.683 0-1.481 1.202-2.683 2.684-2.683h10.733c1.48 0 2.683 1.202 2.683 2.683 0 1.481-1.202 2.683-2.683 2.683zm21.466 0h-10.733c-1.481 0-2.683-1.202-2.683-2.683 0-1.481 1.202-2.683 2.683-2.683h10.733c1.481 0 2.683 1.202 2.683 2.683 0 1.481-1.202 2.683-2.683 2.683zm25.184 9.556c-1.072 0-2.087-.65-2.501-1.71l-3.052-7.846h-8.898c-1.481 0-2.683-1.202-2.683-2.683 0-1.481 1.202-2.683 2.683-2.683h12.568l4.385 11.264c.537 1.382-.148 2.936-1.528 3.474-.32.125-.65.184-.974.184zm-306.781 2.432c-.323 0-.652-.059-.971-.183-1.382-.54-2.065-2.095-1.529-3.475l3.893-10.003c.539-1.38 2.094-2.066 3.474-1.528 1.382.54 2.065 2.094 1.528 3.475l-3.892 10.003c-.414 1.06-1.428 1.711-2.503 1.711zm314.568 17.57c-1.075 0-2.088-.649-2.503-1.71l-3.892-10.001c-.538-1.382.147-2.937 1.527-3.475 1.38-.539 2.937.147 3.475 1.528l3.892 10.002c.538 1.38-.146 2.935-1.527 3.473-.32.125-.65.184-.972.184zm-322.352 2.433c-.325 0-.654-.059-.973-.184-1.38-.538-2.065-2.094-1.528-3.474l3.893-10.002c.538-1.38 2.093-2.066 3.475-1.528 1.38.54 2.065 2.094 1.527 3.475l-3.892 10.001c-.415 1.061-1.429 1.712-2.502 1.712zm330.137 17.572c-1.075 0-2.089-.65-2.502-1.71l-3.894-10.003c-.536-1.38.148-2.937 1.529-3.475 1.377-.538 2.934.146 3.474 1.528l3.893 10.003c.538 1.38-.147 2.935-1.527 3.474-.32.124-.65.183-.973.183zM207.04 226.36c-.323 0-.652-.06-.972-.184-1.381-.538-2.065-2.093-1.527-3.474l3.892-10.003c.538-1.38 2.094-2.066 3.475-1.527 1.38.538 2.064 2.093 1.528 3.473l-3.894 10.003c-.413 1.061-1.427 1.712-2.502 1.712zm345.709 17.57c-1.075 0-2.09-.649-2.504-1.71l-3.892-10.001c-.537-1.38.146-2.936 1.528-3.475 1.38-.535 2.936.147 3.475 1.528l3.892 10.001c.537 1.38-.146 2.936-1.528 3.475-.32.125-.648.182-.971.182zm-353.494 2.433c-.324 0-.652-.06-.972-.184-1.381-.538-2.066-2.093-1.528-3.475l3.892-10.001c.541-1.382 2.103-2.062 3.475-1.527 1.38.538 2.065 2.093 1.528 3.475l-3.893 10.001c-.413 1.061-1.428 1.71-2.502 1.71zm361.276 17.573c-1.073 0-2.087-.651-2.502-1.712l-3.89-10.001c-.539-1.382.146-2.937 1.526-3.475 1.38-.535 2.937.147 3.475 1.528l3.892 10.001c.537 1.382-.147 2.938-1.528 3.475-.32.125-.65.184-.973.184zm-369.062 2.43c-.323 0-.652-.058-.971-.183-1.38-.538-2.065-2.093-1.528-3.474l3.893-10.002c.538-1.38 2.094-2.065 3.474-1.527 1.382.538 2.064 2.093 1.528 3.475l-3.892 10.001c-.415 1.061-1.43 1.71-2.504 1.71zm376.848 17.572c-1.075 0-2.088-.65-2.502-1.712l-3.892-10c-.538-1.381.146-2.936 1.526-3.475 1.382-.537 2.937.147 3.475 1.528l3.892 10c.538 1.383-.146 2.938-1.526 3.475-.321.125-.65.184-.973.184zm-384.633 2.431c-.324 0-.654-.059-.973-.182-1.38-.54-2.065-2.094-1.528-3.475l3.893-10.001c.54-1.383 2.1-2.064 3.475-1.528 1.38.538 2.065 2.094 1.527 3.474l-3.892 10.002c-.415 1.06-1.428 1.71-2.502 1.71zm16.129 3.65H189.08c-1.481 0-2.683-1.201-2.683-2.683 0-1.482 1.202-2.683 2.683-2.683h10.733c1.482 0 2.683 1.201 2.683 2.683 0 1.482-1.2 2.684-2.683 2.684zm21.466 0h-10.733c-1.481 0-2.683-1.201-2.683-2.683 0-1.482 1.202-2.683 2.683-2.683h10.733c1.483 0 2.683 1.201 2.683 2.683 0 1.482-1.2 2.684-2.683 2.684zm21.466 0h-10.733c-1.481 0-2.683-1.201-2.683-2.683 0-1.482 1.202-2.683 2.683-2.683h10.733c1.483 0 2.683 1.201 2.683 2.683 0 1.482-1.2 2.684-2.683 2.684zm21.466 0h-10.733c-1.48 0-2.683-1.201-2.683-2.683 0-1.482 1.202-2.683 2.683-2.683h10.733c1.483 0 2.684 1.201 2.684 2.683 0 1.482-1.201 2.684-2.684 2.684zm21.466 0h-10.733c-1.48 0-2.683-1.201-2.683-2.683 0-1.482 1.202-2.683 2.683-2.683h10.733c1.483 0 2.684 1.201 2.684 2.683 0 1.482-1.201 2.684-2.684 2.684zm21.467 0H296.41c-1.482 0-2.684-1.201-2.684-2.683 0-1.482 1.202-2.683 2.684-2.683h10.733c1.482 0 2.683 1.201 2.683 2.683 0 1.482-1.2 2.684-2.683 2.684zm130.537 0h-10.733c-1.482 0-2.684-1.201-2.684-2.683 0-1.482 1.202-2.683 2.684-2.683h10.733c1.482 0 2.683 1.201 2.683 2.683 0 1.482-1.2 2.684-2.683 2.684zm21.466 0h-10.733c-1.481 0-2.684-1.201-2.684-2.683 0-1.482 1.203-2.683 2.684-2.683h10.733c1.482 0 2.683 1.201 2.683 2.683 0 1.482-1.2 2.684-2.683 2.684zm21.466 0H469.88c-1.481 0-2.683-1.201-2.683-2.683 0-1.482 1.202-2.683 2.683-2.683h10.733c1.482 0 2.683 1.201 2.683 2.683 0 1.482-1.2 2.684-2.683 2.684zm21.466 0h-10.733c-1.481 0-2.683-1.201-2.683-2.683 0-1.482 1.202-2.683 2.683-2.683h10.733c1.483 0 2.683 1.201 2.683 2.683 0 1.482-1.2 2.684-2.683 2.684zm21.466 0h-10.733c-1.481 0-2.683-1.201-2.683-2.683 0-1.482 1.202-2.683 2.683-2.683h10.733c1.483 0 2.683 1.201 2.683 2.683 0 1.482-1.2 2.684-2.683 2.684zm21.466 0h-10.733c-1.48 0-2.683-1.201-2.683-2.683 0-1.482 1.202-2.683 2.683-2.683h10.733c1.483 0 2.684 1.201 2.684 2.683 0 1.482-1.201 2.684-2.684 2.684zm21.466 0h-10.733c-1.48 0-2.683-1.201-2.683-2.683 0-1.482 1.202-2.683 2.683-2.683h10.733c1.483 0 2.684 1.201 2.684 2.683 0 1.482-1.201 2.684-2.684 2.684zm-238.274.408c-.522 0-1.009-.15-1.42-.407h-8.906c-1.481 0-2.684-1.202-2.684-2.684 0-1.482 1.203-2.683 2.684-2.683h13.008l.002 3.064c.014 1.483-1.176 2.696-2.657 2.71h-.027zm93.378 18.5c-.292 0-.59-.048-.883-.151-1.4-.487-2.138-2.016-1.651-3.416 1.112-3.194 1.929-6.53 2.427-9.914.214-1.468 1.587-2.483 3.045-2.264 1.465.216 2.48 1.579 2.264 3.045-.547 3.717-1.444 7.385-2.668 10.899-.385 1.107-1.424 1.801-2.534 1.801zm-89.3 2.442c-1.064 0-2.07-.638-2.492-1.686-1.387-3.46-2.452-7.084-3.166-10.768-.282-1.454.67-2.862 2.125-3.144 1.452-.28 2.862.67 3.143 2.125.65 3.35 1.618 6.645 2.88 9.79.551 1.376-.117 2.937-1.492 3.49-.328.13-.666.193-.997.193zm78.486 15.934c-.64 0-1.282-.228-1.795-.691-1.101-.993-1.187-2.69-.196-3.79 2.254-2.497 4.274-5.258 6.002-8.206.748-1.277 2.393-1.707 3.672-.958 1.278.75 1.708 2.393.958 3.672-1.914 3.262-4.15 6.32-6.646 9.087-.53.587-1.26.886-1.995.886zm-66.792 1.893c-.685 0-1.372-.262-1.897-.785-2.635-2.635-5.023-5.578-7.097-8.754-.81-1.24-.463-2.903.778-3.713 1.237-.81 2.902-.463 3.714.778 1.873 2.865 4.026 5.522 6.4 7.892 1.049 1.048 1.049 2.748 0 3.796-.522.524-1.21.786-1.898.786zm49.46 10.442c-1.056 0-2.057-.625-2.484-1.662-.563-1.37.089-2.938 1.46-3.503 3.082-1.27 6.048-2.917 8.819-4.899 1.206-.863 2.88-.582 3.743.623.863 1.206.584 2.881-.623 3.742-3.103 2.22-6.433 4.07-9.896 5.497-.334.137-.68.202-1.02.202zm-31.474.927c-.29 0-.587-.048-.877-.148-3.547-1.227-6.978-2.886-10.198-4.932-1.25-.794-1.62-2.452-.825-3.704.796-1.25 2.454-1.62 3.704-.824 2.867 1.82 5.92 3.298 9.073 4.387 1.4.484 2.143 2.012 1.66 3.413-.385 1.11-1.424 1.808-2.537 1.808zM376.474 343c-1.441-.001-2.886-.067-4.296-.195-1.476-.135-2.563-1.442-2.43-2.916.136-1.476 1.44-2.544 2.917-2.43 3.294.3 6.748.208 10.052-.292 1.471-.221 2.834.786 3.056 2.25.221 1.466-.786 2.834-2.251 3.056-2.316.349-4.687.527-7.048.527z" transform="translate(-218 -960) translate(218 960)"/>
                <path fill="#FEFEFE" d="M434.666 239c0 31.884-25.819 57.732-57.665 57.732-31.848 0-57.665-25.848-57.665-57.732H145v172h464V239H434.666z" transform="translate(-218 -960) translate(218 960)"/>
                <path fill="#999998" d="M149.064 406.928h455.872V243.072H438.56c-2.083 32.173-28.897 57.709-61.56 57.709-32.662 0-59.475-25.536-61.559-57.71H149.064v163.857zM608.968 415H145.032c-2.227 0-4.032-1.807-4.032-4.036V239.036c0-2.23 1.805-4.036 4.032-4.036h174.311c2.228 0 4.032 1.807 4.032 4.036 0 29.596 24.056 53.673 53.625 53.673 29.57 0 53.625-24.077 53.625-53.673 0-2.23 1.805-4.036 4.032-4.036h174.31c2.228 0 4.033 1.807 4.033 4.036v171.928c0 2.23-1.805 4.036-4.032 4.036z" transform="translate(-218 -960) translate(218 960)"/>
                <path fill="#FEFEFE" d="M376.5 60L376.5 4" transform="translate(-218 -960) translate(218 960)"/>
                <path fill="#999998" d="M377 64c-2.21 0-4-1.79-4-4v-8c0-2.21 1.79-4 4-4s4 1.79 4 4v8c0 2.21-1.79 4-4 4M377 42c-2.21 0-4-1.774-4-3.964V24.964c0-2.19 1.79-3.964 4-3.964s4 1.774 4 3.964v13.072c0 2.19-1.79 3.964-4 3.964M377 16c-2.21 0-4-1.79-4-4V4c0-2.21 1.79-4 4-4s4 1.79 4 4v8c0 2.21-1.79 4-4 4" transform="translate(-218 -960) translate(218 960)"/>
                <path fill="#FEFEFE" d="M415 76L455 36" transform="translate(-218 -960) translate(218 960)"/>
                <path fill="#999998" d="M415.1 80c-1.049 0-2.097-.4-2.898-1.202-1.603-1.6-1.603-4.197 0-5.798L418 67.202c1.602-1.603 4.196-1.603 5.798 0 1.603 1.6 1.603 4.197 0 5.798L418 78.798c-.801.801-1.85 1.202-2.9 1.202M430.924 65c-1.004 0-2.008-.383-2.774-1.15-1.533-1.531-1.533-4.015 0-5.548l9.151-9.152c1.53-1.533 4.016-1.533 5.55 0 1.532 1.531 1.532 4.015 0 5.548l-9.152 9.152c-.765.767-1.77 1.15-2.775 1.15M449.1 46c-1.049 0-2.097-.4-2.898-1.202-1.603-1.6-1.603-4.197 0-5.798L452 33.202c1.602-1.603 4.196-1.603 5.798 0 1.603 1.6 1.603 4.197 0 5.798L452 44.798c-.801.801-1.85 1.202-2.9 1.202" transform="translate(-218 -960) translate(218 960)"/>
                <path fill="#FEFEFE" d="M338 76L298 36" transform="translate(-218 -960) translate(218 960)"/>
                <path fill="#999998" d="M337.9 80c-1.05 0-2.098-.4-2.9-1.202L329.202 73c-1.601-1.6-1.601-4.196 0-5.798 1.6-1.603 4.196-1.603 5.798 0L340.8 73c1.601 1.6 1.601 4.196 0 5.798-.8.801-1.85 1.202-2.9 1.202M323.076 65c-1.005 0-2.008-.383-2.775-1.15L311.15 54.7c-1.533-1.532-1.533-4.017 0-5.55 1.533-1.532 4.016-1.532 5.549 0l9.151 9.152c1.533 1.532 1.533 4.017 0 5.55-.766.766-1.77 1.149-2.774 1.149M303.9 46c-1.05 0-2.099-.4-2.9-1.202L295.202 39c-1.603-1.6-1.603-4.198 0-5.798 1.602-1.603 4.196-1.603 5.798 0L306.798 39c1.603 1.6 1.603 4.198 0 5.798-.8.801-1.849 1.202-2.899 1.202" transform="translate(-218 -960) translate(218 960)"/>
                <path fill="#FEFEFE" d="M198 114L227 172" transform="translate(-218 -960) translate(218 960)"/>
                <path fill="#999998" d="M203.397 126.861c-.977 0-1.917-.54-2.382-1.476l-4.735-9.535c-.656-1.317-.12-2.916 1.194-3.57 1.314-.657 2.908-.12 3.563 1.198l4.735 9.535c.654 1.316.12 2.915-1.194 3.569-.38.19-.784.28-1.181.28m9.474 19.068c-.977 0-1.918-.54-2.381-1.476l-4.737-9.535c-.654-1.317-.119-2.916 1.195-3.57 1.315-.657 2.908-.12 3.563 1.199l4.736 9.535c.654 1.315.12 2.914-1.195 3.567-.381.19-.784.28-1.181.28m9.474 19.07c-.978 0-1.917-.54-2.381-1.476l-4.737-9.535c-.654-1.316-.12-2.915 1.196-3.57 1.313-.656 2.907-.12 3.56 1.198l4.738 9.535c.654 1.316.12 2.915-1.196 3.568-.38.19-.783.28-1.18.28" transform="translate(-218 -960) translate(218 960)"/>
                <path fill="#FEFEFE" d="M555 114L526 172" transform="translate(-218 -960) translate(218 960)"/>
                <path fill="#999998" d="M549.603 126.861c-.397 0-.801-.089-1.181-.28-1.315-.653-1.849-2.252-1.195-3.568l4.736-9.535c.654-1.317 2.246-1.855 3.563-1.197 1.314.653 1.85 2.252 1.194 3.569l-4.736 9.535c-.465.936-1.404 1.476-2.38 1.476m-9.476 19.069c-.397 0-.8-.09-1.182-.28-1.313-.655-1.847-2.252-1.194-3.569l4.736-9.533c.654-1.316 2.242-1.856 3.564-1.197 1.313.655 1.849 2.252 1.195 3.57l-4.737 9.534c-.464.935-1.405 1.475-2.382 1.475M530.655 165c-.397 0-.8-.09-1.18-.28-1.316-.653-1.85-2.252-1.196-3.568l4.737-9.535c.653-1.318 2.245-1.854 3.562-1.198 1.314.655 1.85 2.254 1.196 3.57l-4.738 9.535c-.463.935-1.403 1.476-2.381 1.476" transform="translate(-218 -960) translate(218 960)"/>
            </g>
        </g>
    </g>
</svg>
