<svg xmlns="http://www.w3.org/2000/svg" xmlns:xlink="http://www.w3.org/1999/xlink" width="172" height="172" viewBox="0 0 172 172">
    <defs>
        <linearGradient id="hthwmah12b" x1="-13.514%" x2="104.002%" y1="-14.476%" y2="78.895%">
            <stop offset="0%" stop-color="#F9B300"/>
            <stop offset="100%" stop-color="#F6DB00"/>
        </linearGradient>
        <linearGradient id="6mmo1qzjhe" x1="-59.498%" x2="330.102%" y1="-44.442%" y2="291.788%">
            <stop offset="0%" stop-color="#F9B300"/>
            <stop offset="100%" stop-color="#F6DB00"/>
        </linearGradient>
        <linearGradient id="aain4ve0zh" x1="-343.558%" x2="46.002%" y1="-289.641%" y2="46.555%">
            <stop offset="0%" stop-color="#F9B300"/>
            <stop offset="100%" stop-color="#F6DB00"/>
        </linearGradient>
        <linearGradient id="z93rwafaak" x1="-205.912%" x2="183.782%" y1="-170.855%" y2="165.456%">
            <stop offset="0%" stop-color="#F9B300"/>
            <stop offset="100%" stop-color="#F6DB00"/>
        </linearGradient>
        <linearGradient id="ag1130pt7n" x1="-391.972%" x2="-2.366%" y1="-331.466%" y2="4.769%">
            <stop offset="0%" stop-color="#F9B300"/>
            <stop offset="100%" stop-color="#F6DB00"/>
        </linearGradient>
        <linearGradient id="4l942uhqwq" x1="9.822%" x2="399.474%" y1="15.307%" y2="351.582%">
            <stop offset="0%" stop-color="#F9B300"/>
            <stop offset="100%" stop-color="#F6DB00"/>
        </linearGradient>
        <linearGradient id="tds3zdi8st" x1="3.674%" x2="88.463%" y1="64.317%" y2="50.865%">
            <stop offset="0%" stop-color="#FFF"/>
            <stop offset="100%" stop-color="#DCDCDC"/>
        </linearGradient>
        <path id="6um4ss9o0a" d="M.954 19.525c6.991 3.081 12.346 9.138 14.599 16.554 15.066-7.756 32.873 5.355 29.43 22.334 6.333 0 11.56 2.805 14.855 6.97 7.14-6.843 11.56-16.49 11.56-27.137 0-20.825-16.894-37.718-37.72-37.718-13.982 0-26.2 7.628-32.724 18.997"/>
        <path id="xc8y4wsnvd" d="M11.598.92c-2.343 0-4.235 1.914-4.235 4.236v12.707c0 2.343 1.892 4.235 4.235 4.235 2.344 0 4.257-1.892 4.257-4.235V5.155c0-2.322-1.913-4.236-4.257-4.236z"/>
        <path id="yei9xhu6ig" d="M4.446 6.974C2.103 6.974.21 8.867.21 11.21s1.893 4.257 4.236 4.257h12.728c2.322 0 4.236-1.914 4.236-4.257 0-2.344-1.914-4.236-4.236-4.236H4.446z"/>
        <path id="bhxgsuxnqj" d="M12.545 3.287l-8.987 8.986c-2.666 2.667-.731 7.224 2.989 7.224 1.096 0 2.171-.408 3.01-1.247l8.987-8.986c1.655-1.656 1.655-4.343 0-5.977-.817-.839-1.914-1.248-3.01-1.248-1.075 0-2.15.409-2.989 1.248"/>
        <path id="b9ebi23q4m" d="M3.558 4.191c-1.655 1.634-1.655 4.321 0 5.977l8.987 8.987c.838.817 1.914 1.247 2.989 1.247 3.74 0 5.675-4.558 3.01-7.246L9.556 4.191c-.838-.838-1.913-1.247-3.01-1.247-1.075 0-2.15.409-2.988 1.247"/>
        <path id="x6w272lw6p" d="M3.654 3.287c-1.656 1.633-1.656 4.321 0 5.977l9.008 8.986c.817.839 1.892 1.247 2.988 1.247 3.742 0 5.676-4.557 2.989-7.223L9.652 3.287c-.817-.839-1.913-1.248-2.988-1.248-1.097 0-2.172.409-3.01 1.248"/>
        <path id="0gddc52r7s" d="M22.741 29.891C10.027 30.87 0 41.472 0 54.414 0 67.95 11.03 79 24.704 79h80.235c10.24 0 18.538-8.266 18.538-18.445 0-9.754-7.68-18.445-18.944-18.445 3.456-17-14.4-30.111-29.546-22.355C71.659 8.811 61.46.843 49.387.843c-15.68 0-28.032 13.366-26.646 29.048"/>
    </defs>
    <g fill="none" fill-rule="evenodd">
        <g>
            <g>
                <g transform="translate(3 20) translate(66 30)">
                    <mask id="xcdwrl4vqc" fill="#fff">
                        <use xlink:href="#6um4ss9o0a"/>
                    </mask>
                    <path fill="url(#hthwmah12b)" d="M.954 19.525c6.991 3.081 12.346 9.138 14.599 16.554 15.066-7.756 32.873 5.355 29.43 22.334 6.333 0 11.56 2.805 14.855 6.97 7.14-6.843 11.56-16.49 11.56-27.137 0-20.825-16.894-37.718-37.72-37.718-13.982 0-26.2 7.628-32.724 18.997" mask="url(#xcdwrl4vqc)"/>
                </g>
                <g transform="translate(3 20) translate(88)">
                    <mask id="1qf67cyqcf" fill="#fff">
                        <use xlink:href="#xc8y4wsnvd"/>
                    </mask>
                    <path fill="url(#6mmo1qzjhe)" d="M11.598.92c-2.343 0-4.235 1.914-4.235 4.236v12.707c0 2.343 1.892 4.235 4.235 4.235 2.344 0 4.257-1.892 4.257-4.235V5.155c0-2.322-1.913-4.236-4.257-4.236z" mask="url(#1qf67cyqcf)"/>
                </g>
                <g transform="translate(3 20) translate(145 57)">
                    <mask id="ne6anhv35i" fill="#fff">
                        <use xlink:href="#yei9xhu6ig"/>
                    </mask>
                    <path fill="url(#aain4ve0zh)" d="M4.446 6.974C2.103 6.974.21 8.867.21 11.21s1.893 4.257 4.236 4.257h12.728c2.322 0 4.236-1.914 4.236-4.257 0-2.344-1.914-4.236-4.236-4.236H4.446z" mask="url(#ne6anhv35i)"/>
                </g>
                <g transform="translate(3 20) translate(128 18)">
                    <mask id="783ppvt8ol" fill="#fff">
                        <use xlink:href="#bhxgsuxnqj"/>
                    </mask>
                    <path fill="url(#z93rwafaak)" d="M12.545 3.287l-8.987 8.986c-2.666 2.667-.731 7.224 2.989 7.224 1.096 0 2.171-.408 3.01-1.247l8.987-8.986c1.655-1.656 1.655-4.343 0-5.977-.817-.839-1.914-1.248-3.01-1.248-1.075 0-2.15.409-2.989 1.248" mask="url(#783ppvt8ol)"/>
                </g>
                <g transform="translate(3 20) translate(128 97)">
                    <mask id="bk2gmvr94o" fill="#fff">
                        <use xlink:href="#b9ebi23q4m"/>
                    </mask>
                    <path fill="url(#ag1130pt7n)" d="M3.558 4.191c-1.655 1.634-1.655 4.321 0 5.977l8.987 8.987c.838.817 1.914 1.247 2.989 1.247 3.74 0 5.675-4.558 3.01-7.246L9.556 4.191c-.838-.838-1.913-1.247-3.01-1.247-1.075 0-2.15.409-2.988 1.247" mask="url(#bk2gmvr94o)"/>
                </g>
                <g transform="translate(3 20) translate(48 18)">
                    <mask id="61wihv3qnr" fill="#fff">
                        <use xlink:href="#x6w272lw6p"/>
                    </mask>
                    <path fill="url(#4l942uhqwq)" d="M3.654 3.287c-1.656 1.633-1.656 4.321 0 5.977l9.008 8.986c.817.839 1.892 1.247 2.988 1.247 3.742 0 5.676-4.557 2.989-7.223L9.652 3.287c-.817-.839-1.913-1.248-2.988-1.248-1.097 0-2.172.409-3.01 1.248" mask="url(#61wihv3qnr)"/>
                </g>
                <g transform="translate(3 20) translate(0 54)">
                    <mask id="e81gt2eq0u" fill="#fff">
                        <use xlink:href="#0gddc52r7s"/>
                    </mask>
                    <path fill="url(#tds3zdi8st)" d="M0 54.414C0 67.95 11.03 79 24.704 79h80.235c10.24 0 18.538-8.266 18.538-18.445 0-9.754-7.68-18.445-18.944-18.445 3.456-17-14.4-30.111-29.546-22.355C71.659 8.811 61.46.843 49.387.843c-15.68 0-28.032 13.366-26.646 29.048C10.027 30.87 0 41.472 0 54.414z" mask="url(#e81gt2eq0u)"/>
                </g>
            </g>
        </g>
    </g>
</svg>
