<svg xmlns="http://www.w3.org/2000/svg" xmlns:xlink="http://www.w3.org/1999/xlink" width="76" height="60" viewBox="0 0 76 60">
    <defs>
        <path id="gunop9600a" d="M0.055 0.607L11.055 0.607 11.055 31.607 0.055 31.607z"/>
    </defs>
    <g fill="none" fill-rule="evenodd">
        <g>
            <g>
                <g transform="translate(1 1) translate(62.523 8.694)">
                    <mask id="uc7fnfiwob" fill="#fff">
                        <use xlink:href="#gunop9600a"/>
                    </mask>
                    <path fill="#000" stroke="#000" stroke-width=".7" d="M3.951 3.165l-.012-.013c-.207-.2-.537-.194-.737.013-.2.207-.194.536.012.736 6.842 6.858 6.842 17.96 0 24.817-.097.097-.151.23-.151.367-.001.287.232.521.52.522.138 0 .27-.055.368-.152 7.249-7.265 7.249-19.026 0-26.29" mask="url(#uc7fnfiwob)"/>
                </g>
                <path fill="#000" stroke="#000" stroke-width=".7" d="M63.168 18.675l-.013-.012c-.207-.2-.537-.194-.737.012-.2.207-.194.537.013.737 3.084 3.092 3.084 8.097 0 11.188-.098.098-.153.23-.153.369 0 .288.233.521.52.521.14 0 .272-.055.37-.153 3.496-3.496 3.496-9.165 0-12.662" transform="translate(1 1)"/>
                <path fill="#000" d="M52.015 49.863L52.015 49.863 52.015 49.863z" transform="translate(1 1)"/>
                <g fill="#000" stroke="#000" stroke-width=".7">
                    <path d="M52.54 31.632V18.188c3.305.263 5.928 2.888 6.189 6.192.292 3.711-2.478 6.957-6.189 7.252h0zm-1.046 16.656c-10.148-6.632-21.596-11.02-33.578-12.867v-21.06C29.611 11.498 40.894 7.16 51.494 1.45v46.839zm-31.047 6.638c.025.09.038.182.038.275 0 .554-.449 1.003-1.003 1.003h-7.548c-.45-.003-.845-.304-.967-.737L5.199 36.395l9.625-.003 5.623 18.534zm-19.405-21.9V16.796c.002-1.283 1.041-2.322 2.323-2.323h13.509V35.35H3.365c-1.282-.002-2.321-1.041-2.323-2.323h0zM52.54 17.153V.576c0-.184-.096-.354-.254-.448-.158-.094-.354-.098-.516-.01C40.924 6.046 29.346 10.52 17.333 13.43H3.365C1.508 13.432.002 14.937 0 16.795v16.232c.002 1.857 1.508 3.363 3.365 3.365h.74l5.857 19.361c.253.878 1.054 1.483 1.967 1.485h7.552c.192 0 .383-.027.568-.08 1.085-.314 1.71-1.448 1.397-2.533l-5.528-18.233h1.442c12.297 1.84 24.035 6.378 34.37 13.29.085.055.184.085.285.085.088.001.175-.02.252-.063.168-.091.273-.267.273-.458V32.669c3.983-.312 7.123-3.616 7.17-7.668.047-4.123-3.119-7.532-7.17-7.85h0z" transform="translate(1 1) translate(0 .096)"/>
                </g>
            </g>
        </g>
    </g>
</svg>
