<svg xmlns="http://www.w3.org/2000/svg" width="74" height="44" viewBox="0 0 74 44">
    <g fill="none" fill-rule="evenodd">
        <g fill="#000" stroke="#000" stroke-width=".7">
            <g>
                <path d="M40.04 3.162c-1.209-1.255-2.876-1.966-4.618-1.968H11.29c-1.602 0-3.052.946-3.698 2.413L2.147 15.98H52.33L40.04 3.162zM1.35 17.022c-.072 0-.143-.014-.209-.043-.263-.115-.384-.422-.269-.686L6.64 3.186C7.45 1.34 9.276.15 11.29.15h24.134c2.027.004 3.966.832 5.371 2.292L53.928 16.14c.094.098.146.228.145.364 0 .287-.235.52-.523.518H1.35zM50.754 34.802c-.003 3.583 2.9 6.49 6.483 6.493 3.582.003 6.49-2.9 6.492-6.483.003-3.583-2.899-6.49-6.482-6.492-3.581.001-6.486 2.9-6.493 6.482m-1.042 0c.003-4.154 3.37-7.522 7.525-7.524 4.158-.003 7.532 3.366 7.535 7.524.002 4.159-3.366 7.532-7.525 7.535-4.16-.004-7.53-3.375-7.535-7.535M8.16 34.802c-.003 3.583 2.9 6.49 6.483 6.493 3.583.003 6.49-2.9 6.493-6.483.002-3.583-2.9-6.49-6.483-6.492-3.581.001-6.486 2.9-6.493 6.482m-1.042 0c.003-4.154 3.37-7.522 7.525-7.524 4.158-.003 7.532 3.366 7.535 7.524.002 4.159-3.366 7.532-7.525 7.535-4.16-.004-7.53-3.375-7.535-7.535" transform="translate(1 1)"/>
                <path d="M14.651 31.593c-1.775-.012-3.224 1.417-3.236 3.192-.013 1.775 1.416 3.224 3.191 3.236.856.019 1.683-.31 2.293-.91.615-.596.967-1.414.977-2.27.02-1.773-1.4-3.227-3.174-3.248H14.651zm-.06 7.472c-2.384-.018-4.311-1.945-4.329-4.328-.017-2.408 1.921-4.374 4.329-4.391 2.407-.017 4.373 1.92 4.39 4.328.017 2.408-1.92 4.373-4.328 4.39h-.062zM33.763 21.087c0-.288.234-.521.522-.521h3.497c.288 0 .521.233.521.521 0 .288-.233.521-.52.521h-3.498c-.288 0-.522-.233-.522-.521M13.834 21.087c0-.288.233-.521.521-.521h3.498c.287 0 .52.233.52.521 0 .288-.233.521-.52.521h-3.498c-.288 0-.521-.233-.521-.521M57.245 31.59c-1.775-.012-3.224 1.417-3.237 3.192-.012 1.775 1.417 3.224 3.192 3.236 1.779.025 3.241-1.396 3.267-3.174.015-.85-.311-1.67-.906-2.276-.595-.614-1.41-.964-2.263-.975h-.049l-.004-.003zm.004 7.474h-.063c-1.129-.016-2.205-.48-2.992-1.29-1.64-1.686-1.602-4.382.084-6.021.812-.784 1.902-1.216 3.03-1.202 2.305.048 4.152 1.922 4.168 4.226.017 2.352-1.876 4.271-4.227 4.288v-.001zM24.953 16.501V.673c0-.288.233-.521.521-.521.288 0 .521.233.521.52v15.83c0 .287-.233.52-.521.52-.288 0-.521-.233-.521-.52" transform="translate(1 1)"/>
                <path d="M40.04 3.162c-1.209-1.255-2.876-1.966-4.618-1.968H11.29c-1.602 0-3.052.946-3.698 2.413L2.147 15.98H52.33L40.04 3.162zM1.35 17.022c-.072 0-.143-.014-.209-.043-.263-.115-.384-.422-.269-.686L6.64 3.186C7.45 1.34 9.276.15 11.29.15h24.134c2.027.004 3.966.832 5.371 2.292L53.928 16.14c.094.098.146.228.145.364 0 .287-.235.52-.523.518H1.35z" transform="translate(1 1)"/>
                <path d="M7.136 34.281c.268-3.737 3.24-6.71 6.978-6.978 4.151-.298 7.758 2.827 8.055 6.978h27.56c.269-3.737 3.241-6.71 6.979-6.978 4.151-.298 7.758 2.827 8.055 6.978h3.823c1.257.001 2.278-1.015 2.282-2.272v-8.848c0-1.043-.71-1.952-1.721-2.204l-15.727-3.95c-.095-.025-.18-.075-.249-.145L40.04 3.167c-1.206-1.259-2.872-1.971-4.615-1.975H11.287c-1.602.003-3.05.952-3.691 2.42L1.042 18.497V32.01c.002 1.254 1.018 2.27 2.272 2.272h3.822zm-3.822 1.042C1.484 35.321.002 33.838 0 32.01V18.39c0-.07.015-.142.044-.208L6.64 3.196C7.45 1.35 9.272.158 11.287.154h24.137c2.026.003 3.964.83 5.368 2.292l13.027 13.586 15.582 3.914c1.475.37 2.51 1.694 2.51 3.215v8.848c-.006 1.832-1.493 3.315-3.325 3.314H64.26c-.288 0-.521-.233-.521-.521 0-3.585-2.907-6.492-6.492-6.492-3.586 0-6.493 2.906-6.494 6.492 0 .288-.233.521-.52.521H21.666c-.288 0-.521-.233-.521-.521-.002-3.584-2.907-6.489-6.49-6.49-3.586-.002-6.494 2.904-6.496 6.49 0 .288-.233.521-.52.521H3.313z" transform="translate(1 1)"/>
            </g>
        </g>
    </g>
</svg>
