<svg xmlns="http://www.w3.org/2000/svg" width="69" height="74" viewBox="0 0 69 74">
    <g fill="none" fill-rule="evenodd">
        <g fill="#000" stroke="#000" stroke-width=".7">
            <g>
                <path d="M26.703 38.581v-9.296c0-.288-.234-.521-.521-.521-.288 0-.521.233-.521.521v9.294c0 .288.233.521.52.521.288 0 .52-.232.522-.519M20.952 32.782c-.288 0-.521.233-.521.52v5.277c0 .288.233.521.521.521.288 0 .521-.233.521-.52v-5.277c0-.288-.233-.521-.521-.521" transform="translate(1 1)"/>
                <path d="M65.268 64.917h-17.36c-.29 0-.534-.175-.534-.383 0-2.677 2.58-4.857 5.75-4.857h6.927c3.17 0 5.75 2.18 5.75 4.857 0 .207-.245.383-.533.383h0zM28.524 19.404c2.414 0 4.373 1.956 4.377 4.371v33.862c-3.704.267-6.627 3.354-6.627 7.126 0 .412.037.814.104 1.207H2.304h0c-.698-.002-1.263-.57-1.26-1.267v-4.411l5.802-2.02c1.236-.45 2.053-1.63 2.037-2.946V44.041c.016-1.315-.801-2.497-2.037-2.947l-5.803-2.016v-3.832c0-8.734 6.297-15.842 14.036-15.842h13.445zm5.419 39.28c3.126.267 5.58 2.886 5.584 6.08 0 3.372-2.734 6.105-6.105 6.105-2.578 0-4.78-1.598-5.676-3.857-.133-.334-.238-.682-.31-1.042-.078-.39-.12-.793-.12-1.206 0-3.196 2.457-5.817 5.585-6.081.171-.015.345-.024.52-.024.176 0 .35.01.522.024h0zm-32.9-18.502l5.462 1.897c.818.304 1.354 1.09 1.337 1.962v11.285c.017.871-.519 1.658-1.336 1.962l-5.463 1.898V40.182zm59.009 18.453h-2.98v-47.51C57.065 4.984 52.088.007 45.947 0h-9.748c-6.141.007-11.118 4.984-11.125 11.125v7.241h-9.996C6.764 18.366 0 25.94 0 35.25v29.458c.002 1.272 1.032 2.302 2.304 2.304h24.334c.942 2.845 3.622 4.898 6.784 4.898 3.945-.004 7.142-3.2 7.147-7.146h0c0-3.773-2.923-6.86-6.626-7.127V23.775c-.006-2.989-2.43-5.409-5.42-5.409h-2.407v-7.24c.006-5.567 4.517-10.078 10.083-10.084h9.748c5.566.006 10.076 4.517 10.083 10.083v47.51h-2.906c-3.745 0-6.792 2.646-6.792 5.899.044.828.748 1.465 1.576 1.426h17.36c.828.039 1.531-.598 1.575-1.426 0-3.253-3.046-5.899-6.791-5.899h0z" transform="translate(1 1)"/>
            </g>
        </g>
    </g>
</svg>
