<svg xmlns="http://www.w3.org/2000/svg" xmlns:xlink="http://www.w3.org/1999/xlink" width="75" height="45" viewBox="0 0 75 45">
    <defs>
        <path id="o6yol9ng1a" d="M0 0L75 0 75 44.262 0 44.262z"/>
    </defs>
    <g fill="none" fill-rule="evenodd">
        <g>
            <g>
                <mask id="h3e24h43sb" fill="#fff">
                    <use xlink:href="#o6yol9ng1a"/>
                </mask>
                <path fill="#000" stroke="#000" stroke-width=".7" d="M67.129 10.954H44.498l-5.602-9.828h27.357l.876 1.424 5.166 8.404h-5.166zM66.006 43.14H38.491V2.684l5.192 9.112c.101.174.287.282.488.281h21.835v31.062zM9.853 12.077h21.835c.202 0 .388-.108.488-.284l5.192-9.108v40.454H9.853V12.077zm-6.288-1.123L8.73 2.55l.876-1.424h27.357l-5.602 9.828H3.565zm70.211.265L67.046.268C66.944.102 66.763 0 66.567 0H37.93l-.036.002H9.292c-.035 0-.07.005-.104.011L9.17.016c-.033.008-.064.017-.095.03l-.01.005c-.027.012-.052.026-.076.041L8.97.104c-.025.018-.05.038-.072.06l-.014.015c-.017.018-.032.037-.047.057l-.017.025-.007.01-6.731 10.95c-.054.09-.083.19-.083.294 0 .31.251.562.561.562h6.17V43.7c0 .31.25.562.56.562H66.568c.31 0 .562-.252.562-.562V12.077h6.169c.105 0 .209-.03.298-.085.263-.163.344-.51.18-.773h0z" mask="url(#h3e24h43sb)"/>
            </g>
        </g>
    </g>
</svg>
