<svg xmlns="http://www.w3.org/2000/svg" width="61" height="73" viewBox="0 0 61 73">
    <g fill="none" fill-rule="evenodd">
        <g>
            <g>
                <g fill="#000" stroke="#000">
                    <path d="M57.294 39.687H40.147c-.078-.044-.168-.07-.261-.07H20.328c-.094 0-.183.026-.262.07H2.92c-.168 0-.334-.024-.496-.07-.989-.277-1.565-1.304-1.287-2.293l10.01-34.851c.229-.795.955-1.344 1.782-1.346h34.356c.828.002 1.555.55 1.784 1.347L59.078 37.32c.046.163.07.331.07.5.003 1.028-.827 1.863-1.854 1.866h0zm-18.642 12.62c-1.413 3.602-2.613 7.285-3.593 11.028h-9.903c-.981-3.743-2.181-7.426-3.595-11.028-1.152-3.087-2.063-5.528-2.063-6.842-.001-1.636.383-3.249 1.12-4.709h18.977c.737 1.46 1.122 3.073 1.12 4.71 0 1.311-.91 3.752-2.063 6.841h0zm.616 12.097c3.605.004 6.603 2.778 6.886 6.372H14.06c.284-3.594 3.281-6.368 6.887-6.372h18.321zM60.105 37.03L50.098 2.18C49.737.925 48.59.06 47.285.058H12.93c-1.305.002-2.451.867-2.812 2.12L.11 37.03c-.073.257-.11.522-.11.79-.005 1.617 1.302 2.932 2.92 2.936h16.511c-.66 1.478-1.004 3.08-1.003 4.706 0 1.507.941 4.027 2.132 7.218 1.37 3.48 2.53 7.038 3.48 10.655h-3.094c-4.403.005-7.97 3.573-7.976 7.976 0 .295.24.534.534.534H46.71c.295 0 .535-.239.535-.534-.006-4.403-3.574-7.97-7.976-7.976h-3.095c.95-3.616 2.11-7.175 3.48-10.655 1.19-3.191 2.131-5.71 2.131-7.218.002-1.625-.343-3.228-1.003-4.706h16.513v.002c.268 0 .535-.038.793-.11 1.556-.443 2.46-2.062 2.018-3.618h0z" transform="translate(0 .097)"/>
                </g>
                <path d="M35.48 64.5H20.947c-3.606.005-6.603 2.779-6.887 6.373h32.094c-.283-3.594-3.28-6.368-6.886-6.372H35.48zM20.618 40.853c-.737 1.46-1.121 3.073-1.12 4.71 0 1.313.911 3.753 2.064 6.84 1.413 3.603 2.613 7.285 3.594 11.029h9.903c.98-3.744 2.18-7.426 3.593-11.028 1.152-3.09 2.063-5.53 2.063-6.842.002-1.636-.383-3.25-1.12-4.709H20.618zM49.068 2.57c-.228-.795-.955-1.344-1.783-1.347H12.93c-.827.003-1.553.551-1.782 1.346L1.137 37.42c-.278.99.298 2.016 1.287 2.295.162.045.328.068.496.069h17.146c.079-.044.168-.07.262-.07h19.558c.093 0 .183.026.262.07h17.145c1.028-.003 1.858-.839 1.855-1.866 0-.169-.024-.337-.07-.5L49.068 2.57z"/>
            </g>
        </g>
    </g>
</svg>
