<svg xmlns="http://www.w3.org/2000/svg" width="74" height="53" viewBox="0 0 74 53">
    <g fill="none" fill-rule="evenodd">
        <g fill="#000" stroke="#000" stroke-width=".7">
            <g>
                <path d="M70.872 49.914H38.73V21.978c4.583-.322 7.854-4.804 7.854-10.894V5.24h2.87v2.925c0 3.83 2.396 6.948 5.348 6.948 2.951 0 5.348-3.117 5.348-6.948V5.24h2.862v5.844c-.071 2.72.705 5.394 2.22 7.652 1.293 1.88 3.367 3.071 5.641 3.24v27.938zM29.975 17.243l-3.104-.497c-.252-.036-.495.112-.577.353-.128.39-3.077 9.715 1.186 23.318-2.084 1.078-12.663 5.997-21.886.035C9.876 26.833 7.063 16.994 6.938 16.58c-.072-.25-.32-.409-.577-.368l-3.108.465-2.116-7.504L7.518 5.5c1.304 3.905 4.959 6.54 9.076 6.546 4.002-.167 7.499-2.756 8.826-6.535l6.64 4.216-2.085 7.516zM24.429 5.24c-1.21 3.296-4.282 5.586-7.835 5.763C12.93 10.997 9.706 8.66 8.53 5.24h15.9zm26.068 0h8.612v2.925c0 3.256-1.932 5.906-4.306 5.906s-4.306-2.65-4.306-5.906V5.24zm20.898 15.713c-4.253 0-7.34-4.15-7.34-9.87V5.24h7.338c.288 0 .521-.233.521-.521 0-.288-.233-.521-.52-.521H62.103V.52c0-.288-.234-.52-.522-.52-.288 0-.521.232-.521.52v3.677H49.975h0-2.084V.52c0-.288-.233-.52-.52-.52-.289 0-.522.232-.522.52v3.677H26.597V.52c0-.288-.233-.52-.52-.52-.289 0-.522.232-.522.52v3.677H7.634V.52c0-.288-.234-.52-.521-.52-.288 0-.521.232-.521.52v3.677H.525c-.288 0-.521.233-.521.521 0 .288.233.521.521.521h5.353L.261 8.472c-.207.119-.306.363-.241.593l2.35 8.337c.072.253.32.413.58.374l3.099-.464c.496 2.07 2.275 11.275-1.571 23.199-.07.221.015.462.208.59 3.249 2.185 7.084 3.33 10.999 3.281 4.424-.078 8.768-1.195 12.68-3.26.213-.124.31-.378.234-.611-3.826-11.876-1.96-20.67-1.438-22.662l3.105.496c.262.043.513-.119.584-.375l2.316-8.337c.061-.221-.03-.457-.223-.58L26.936 5.24h18.607v5.844c0 5.71-3.079 9.858-7.323 9.869-.03 0-.06 0-.09.005-.285.04-.483.304-.443.59v28.887c0 .288.233.521.521.521H71.395c.288 0 .521-.233.521-.52V21.473c0-.288-.233-.521-.52-.521h0z" transform="translate(1 1)"/>
            </g>
        </g>
    </g>
</svg>
