<svg xmlns="http://www.w3.org/2000/svg" width="74" height="44" viewBox="0 0 74 44">
    <g fill="none" fill-rule="evenodd">
        <g>
            <g>
                <g>
                    <path fill="#000" stroke="#000" d="M70.868 32.725c0 1.426-1.157 2.581-2.582 2.583h-4.723c-.204-3.2-2.862-5.731-6.113-5.731-3.25 0-5.908 2.531-6.113 5.73H45.95V9.578h12.089c1.178-.001 2.296.52 3.052 1.423l8.84 10.52c.605.718.937 1.626.938 2.565v8.64zm-8.333 2.986c-.009.038-.015.077-.015.118 0 .03.004.06.01.09-.114 2.708-2.344 4.87-5.08 4.87-2.733 0-4.962-2.157-5.079-4.862.006-.032.01-.065.01-.098 0-.042-.006-.082-.015-.121v-.004c0-2.809 2.276-5.085 5.084-5.085v.004c2.806.003 5.08 2.275 5.085 5.08v.008h0zM44.905 9.057h0v26.25H30.2c-.205-3.199-2.863-5.73-6.113-5.73-3.25 0-5.909 2.531-6.113 5.73h-.967c-.205-3.199-2.863-5.73-6.113-5.73-3.251 0-5.91 2.532-6.113 5.732H2.64c-.882-.001-1.597-.717-1.598-1.6V2.792c0-.882.716-1.598 1.599-1.6h40.664c.883 0 1.6.716 1.6 1.6v6.265zM29.17 35.774c-.002.018-.006.036-.006.055 0 .01.003.021.003.032-.083 2.735-2.325 4.927-5.08 4.927-2.745 0-4.98-2.174-5.08-4.894.003-.021.006-.043.006-.065 0-.037-.003-.072-.01-.107L19 35.704c0-2.809 2.276-5.085 5.085-5.085v.004c2.805.003 5.08 2.275 5.085 5.08l-.002.071h0zm-13.192-.066c-.009.039-.015.079-.015.12 0 .034.004.067.01.1-.117 2.704-2.346 4.86-5.08 4.86-2.763 0-5.01-2.204-5.08-4.95v-.008l-.001-.013c0-.038-.003-.076-.003-.113 0-2.809 2.277-5.085 5.085-5.085v.004c2.805.003 5.08 2.275 5.085 5.08v.005h0zM70.73 20.849l-8.842-10.52c-.955-1.138-2.365-1.795-3.851-1.793h-12.09V2.792c-.002-1.458-1.184-2.64-2.642-2.641H2.64C1.183.152 0 1.334 0 2.792V33.71c0 1.458 1.182 2.64 2.64 2.642H4.8c.322 3.08 2.927 5.48 6.092 5.48 3.164-.004 5.766-2.403 6.092-5.481h1.008c.323 3.08 2.927 5.48 6.093 5.48 3.164-.003 5.766-2.402 6.092-5.48H51.357c.323 3.08 2.928 5.48 6.093 5.48 3.164-.003 5.767-2.402 6.092-5.48h4.744c2-.003 3.621-1.625 3.623-3.625v-8.64c0-1.183-.418-2.329-1.18-3.236h0z" transform="translate(-770 -756) translate(771 757)"/>
                    <path fill="#000" d="M57.45 37.662c-1.081 0-1.958-.877-1.958-1.958 0-1.082.877-1.959 1.958-1.959v.004c1.08.002 1.955.875 1.958 1.955 0 1.081-.876 1.958-1.958 1.958m0-4.959c-1.657 0-3 1.344-3 3 0 1.658 1.343 3 3 3s2.999-1.343 3-3c0-1.656-1.343-3-3-3M50.13 22.39v-8.627h8.033l7.15 8.627H50.13zm8.678-9.482c-.099-.12-.246-.189-.401-.189H49.61c-.288 0-.521.234-.521.521v9.67c0 .289.233.522.52.522H66.42v-.001c.12 0 .238-.043.332-.12.221-.184.252-.512.069-.734l-8.013-9.67zM10.893 37.662c-1.082 0-1.959-.877-1.959-1.958 0-1.082.877-1.959 1.959-1.959v.004c1.08.002 1.955.875 1.958 1.955 0 1.081-.877 1.958-1.958 1.958m0-4.959c-1.657 0-3 1.344-3 3 0 1.658 1.343 3 3 3 1.656 0 2.999-1.343 3-3 0-1.656-1.343-3-3-3M24.086 37.662c-1.082 0-1.958-.877-1.958-1.958 0-1.082.876-1.959 1.958-1.959v.004c1.08.002 1.955.875 1.958 1.955 0 1.081-.877 1.958-1.958 1.958m0-4.959c-1.657 0-3 1.344-3 3 0 1.658 1.343 3 3 3 1.656 0 2.998-1.343 3-3 0-1.656-1.343-3-3-3" transform="translate(-770 -756) translate(771 757)"/>
                    <path fill="#FFF" d="M37.208 21.766H8.075l.004-12.188h29.129v12.188zm6.097-20.573H2.64c-.883.001-1.598.717-1.599 1.6v30.916c0 .883.716 1.598 1.599 1.6H4.78c.204-3.2 2.862-5.732 6.113-5.732 3.25 0 5.908 2.531 6.113 5.73h.967c.204-3.199 2.862-5.73 6.113-5.73 3.25 0 5.908 2.531 6.113 5.73h14.706V2.792c0-.883-.717-1.598-1.6-1.598z" transform="translate(-770 -756) translate(771 757)"/>
                    <path fill="#FFF" d="M8.075 21.766L37.208 21.766 37.208 9.578 8.079 9.578zM10.893 38.704c-1.657 0-3-1.343-3-3 0-1.658 1.343-3.001 3-3.001s3 1.343 3 3c-.001 1.657-1.344 3-3 3m0-8.08v-.004c-2.809 0-5.085 2.276-5.085 5.085 0 .038.002.075.003.113l.001.013v.007c.07 2.747 2.318 4.951 5.08 4.951 2.734 0 4.963-2.156 5.08-4.86-.006-.033-.01-.066-.01-.1 0-.041.006-.081.016-.12v-.004c-.005-2.806-2.28-5.078-5.085-5.081M24.086 38.704c-1.657 0-3-1.343-3-3 0-1.658 1.343-3.001 3-3.001s3 1.343 3 3c-.002 1.657-1.344 3-3 3m0-8.08v-.004c-2.809 0-5.085 2.276-5.085 5.085v.018c.008.035.011.07.011.107 0 .022-.003.044-.006.065.1 2.72 2.335 4.894 5.08 4.894 2.755 0 4.997-2.192 5.08-4.927 0-.01-.003-.021-.003-.032 0-.02.004-.037.006-.055l.002-.07c-.006-2.806-2.28-5.078-5.085-5.081M57.45 38.704c-1.657 0-3-1.343-3-3 0-1.658 1.343-3.001 3-3.001s3 1.343 3 3c-.001 1.657-1.343 3-3 3m0-8.08v-.004c-2.808 0-5.085 2.276-5.085 5.085v.004c.01.039.016.079.016.12 0 .034-.004.067-.01.1.117 2.704 2.346 4.86 5.08 4.86 2.735 0 4.965-2.16 5.079-4.869-.006-.03-.01-.06-.01-.09 0-.04.006-.08.015-.118v-.007c-.005-2.806-2.28-5.078-5.085-5.081" transform="translate(-770 -756) translate(771 757)"/>
                    <path fill="#FFF" d="M57.45 33.75v-.005c-1.081 0-1.958.877-1.958 1.959 0 1.081.877 1.958 1.958 1.958 1.082 0 1.958-.877 1.958-1.958-.003-1.08-.879-1.954-1.958-1.955" transform="translate(-770 -756) translate(771 757)"/>
                    <path fill="#FFF" d="M66.752 23.311c-.094.077-.211.12-.333.12h.001-16.81c-.288 0-.521-.233-.521-.52v-9.67c0-.288.233-.522.52-.522h8.798c.155 0 .302.07.401.189l8.012 9.67c.184.22.153.55-.068.733zM61.09 11c-.756-.903-1.874-1.424-3.052-1.423h-12.09v25.73h5.39c.204-3.199 2.862-5.73 6.112-5.73s5.909 2.531 6.113 5.73h4.723c1.425 0 2.581-1.156 2.582-2.582v-8.64c-.001-.939-.333-1.847-.938-2.566L61.09 11z" transform="translate(-770 -756) translate(771 757)"/>
                    <path fill="#FFF" d="M50.131 13.763L50.131 22.39 65.312 22.39 58.163 13.763zM10.893 33.75v-.005c-1.082 0-1.959.877-1.959 1.959 0 1.081.877 1.958 1.959 1.958 1.081 0 1.958-.877 1.958-1.958-.003-1.08-.879-1.954-1.958-1.955M24.086 33.75v-.005c-1.082 0-1.958.877-1.958 1.959 0 1.081.876 1.958 1.958 1.958 1.081 0 1.958-.877 1.958-1.958-.003-1.08-.879-1.954-1.958-1.955" transform="translate(-770 -756) translate(771 757)"/>
                </g>
            </g>
        </g>
    </g>
</svg>
