<svg xmlns="http://www.w3.org/2000/svg" width="60" height="73" viewBox="0 0 60 73">
    <g fill="none" fill-rule="evenodd">
        <g>
            <g>
                <g fill="#000" stroke="#000">
                    <path d="M55.457 70.81H3.85c-.124 0-.248-.009-.371-.025-1.537-.206-2.616-1.619-2.41-3.156L6.06 20.842c.233-2.213 2.1-3.892 4.325-3.888h7.147v6.821c-1.648.251-2.91 1.675-2.91 3.393 0 1.895 1.536 3.432 3.432 3.432 1.895 0 3.432-1.537 3.432-3.432 0-1.72-1.264-3.143-2.914-3.393v-6.822l22.162-.002v6.824c-1.649.25-2.912 1.674-2.912 3.393 0 1.895 1.536 3.432 3.432 3.432 1.895 0 3.432-1.537 3.432-3.432 0-1.719-1.263-3.142-2.912-3.393v-6.824l7.148-.001c2.225-.004 4.093 1.675 4.325 3.887l4.998 46.8c.015.122.023.245.023.368-.001 1.55-1.26 2.806-2.81 2.805h0zM18.054 24.786h0c1.319 0 2.39 1.068 2.391 2.387v.005c0 1.322-1.07 2.392-2.391 2.393-1.322 0-2.392-1.071-2.392-2.393 0-1.32 1.07-2.392 2.392-2.392h0zm.518-12.572c0-6.12 4.962-11.08 11.081-11.08 6.12 0 11.081 4.96 11.081 11.08v3.697H18.572v-3.697zm22.682 12.571c1.32 0 2.39 1.069 2.392 2.388v.005c0 1.322-1.071 2.392-2.392 2.393-1.321 0-2.392-1.071-2.392-2.393 0-1.32 1.07-2.392 2.392-2.392h0zm18.019 42.73l-4.992-46.788c-.288-2.741-2.603-4.821-5.36-4.816h-7.147v-3.697c0-6.694-5.427-12.12-12.12-12.12-6.695 0-12.122 5.426-12.122 12.12v3.697h-7.148c-2.757-.005-5.07 2.075-5.36 4.816L.032 67.504c-.021.165-.032.333-.032.5.001 2.125 1.725 3.847 3.85 3.846h51.607c.163 0 .325-.01.486-.031 2.108-.269 3.599-2.196 3.33-4.304h0z" transform="translate(0 .057)"/>
                </g>
                <path fill="#000" d="M25.014 44.49c1.28 0 2.316-1.37 2.316-3.06s-1.037-3.059-2.316-3.059-2.316 1.37-2.316 3.06 1.037 3.06 2.316 3.06M19.353 45.421c-1.037 0-1.878 1.11-1.878 2.48 0 1.37.84 2.481 1.878 2.481 1.036 0 1.877-1.11 1.877-2.48 0-1.37-.84-2.48-1.877-2.48M34.294 44.49c1.28 0 2.316-1.37 2.316-3.06s-1.037-3.059-2.316-3.059-2.316 1.37-2.316 3.06 1.037 3.06 2.316 3.06M39.956 45.421c-1.037 0-1.877 1.11-1.877 2.48 0 1.37.84 2.481 1.877 2.481s1.877-1.11 1.877-2.48c0-1.37-.84-2.48-1.877-2.48M29.658 46.207c-.225-.008-.45-.006-.675.007-4.084.224-7.212 3.716-6.988 7.8 0 4.865 3.432 2.813 7.663 2.813 4.23 0 7.663 2.052 7.663-2.813.012-.225.014-.45.006-.676-.149-4.087-3.582-7.28-7.67-7.13"/>
                <path d="M39.956 50.382c-1.037 0-1.877-1.11-1.877-2.48 0-1.37.84-2.48 1.877-2.48s1.877 1.11 1.877 2.48c0 1.37-.84 2.48-1.877 2.48zm-2.635 3.632c0 4.865-3.432 2.813-7.663 2.813-4.23 0-7.663 2.052-7.663-2.813-.224-4.084 2.904-7.576 6.988-7.8.224-.013.45-.015.675-.007 4.087-.148 7.52 3.044 7.669 7.131.008.225.006.45-.006.676zM25.014 38.37c1.28 0 2.316 1.37 2.316 3.06s-1.037 3.06-2.316 3.06-2.316-1.37-2.316-3.06 1.037-3.06 2.316-3.06zm9.28 0c1.28 0 2.316 1.37 2.316 3.06s-1.037 3.06-2.316 3.06-2.316-1.37-2.316-3.06 1.037-3.06 2.316-3.06zM19.353 50.382c-1.037 0-1.878-1.11-1.878-2.48 0-1.37.84-2.48 1.878-2.48 1.036 0 1.877 1.11 1.877 2.48 0 1.37-.84 2.48-1.877 2.48zm33.894-29.487c-.232-2.213-2.1-3.892-4.325-3.888l-7.148.001v6.824c1.649.251 2.912 1.675 2.912 3.393 0 1.896-1.537 3.432-3.432 3.432s-3.432-1.536-3.432-3.432c0-1.718 1.263-3.142 2.912-3.393v-6.824l-22.162.002v6.822c1.65.25 2.914 1.674 2.914 3.393 0 1.896-1.537 3.432-3.432 3.432-1.896 0-3.433-1.536-3.433-3.432 0-1.718 1.263-3.141 2.911-3.392V17.01l-7.147.001c-2.224-.004-4.092 1.675-4.325 3.888L1.068 67.687c-.205 1.537.874 2.95 2.411 3.155.123.017.247.025.371.025h51.607c1.551.002 2.81-1.254 2.811-2.805 0-.123-.008-.245-.023-.367l-4.998-46.8z"/>
                <path d="M15.662 27.236c0 1.32 1.07 2.392 2.392 2.392 1.32 0 2.392-1.071 2.392-2.392v-.005c-.003-1.32-1.073-2.388-2.392-2.388-1.322 0-2.392 1.072-2.392 2.393M38.862 27.236c0 1.32 1.07 2.392 2.392 2.392 1.321 0 2.392-1.071 2.392-2.392v-.005c-.002-1.32-1.073-2.388-2.392-2.388-1.321 0-2.392 1.072-2.392 2.393"/>
            </g>
        </g>
    </g>
</svg>
