<svg xmlns="http://www.w3.org/2000/svg" xmlns:xlink="http://www.w3.org/1999/xlink" width="72" height="67" viewBox="0 0 72 67">
    <defs>
        <path id="y33lhpzb3a" d="M0.079 0.129L38.912 0.129 38.912 38.41 0.079 38.41z"/>
        <path id="2vzo39ho0c" d="M0 0.094L26.999 0.094 26.999 41.184 0 41.184z"/>
        <path id="a9v6i8k2se" d="M0.139 0.055L42.737 0.055 42.737 27.949 0.139 27.949z"/>
    </defs>
    <g fill="none" fill-rule="evenodd">
        <g>
            <g>
                <g transform="translate(32.987 28.113)">
                    <mask id="juc0zl9cfb" fill="#fff">
                        <use xlink:href="#y33lhpzb3a"/>
                    </mask>
                    <path fill="#000" d="M37.71 15.776c-.125.465-.311.912-.552 1.329l-.002.002c-.097.163-.202.321-.314.474l-.05.066-.115.15-.097.116-.075.087c-.047.053-.094.105-.143.156l-.032.035c-.185.192-.382.372-.592.538-.21.16-.43.306-.656.441-1.053.615-2.239.973-3.46 1.043-.08.004-.16.007-.24.008l-3.783.148-7.216-12.61 11.047-6.39 5.586 9.937c.81 1.341 1.059 2.947.694 4.47zm-8.329 14.698c-1.226 2.085-3.483 3.346-5.902 3.294l-9.786-.245-.13-8.519-.051-3.545 13.694-.047c.043.011.087.015.132.011l4-.157c.037-.001.075-.005.113-.006 1.324-.02 2.618-.357 3.776-.973.036-.019.074-.035.11-.054l-5.956 10.24zM1.416 27.57l11.008-9.318.037 2.646c0 .016-.004.032-.004.048l.078 5.13.151 10.7-11.27-9.206zM37.92 10.794L32.075.394 32.073.39c-.144-.25-.462-.335-.712-.191L19.41 7.115c-.25.144-.335.462-.192.711L26.4 20.373l-12.904.044-.047-3.277c-.001-.12-.045-.237-.123-.33-.186-.22-.515-.247-.734-.06L.263 27.181c-.117.1-.185.248-.184.403.002.154.072.3.192.398l12.623 10.31c.093.076.21.118.33.117v-.002h.008c.287-.004.517-.24.513-.528l-.047-3.312 9.751.244h.201c2.732 0 5.257-1.452 6.63-3.814l7.777-13.37c.004-.006.005-.013.008-.02.282-.49.5-1.014.647-1.56.437-1.787.153-3.675-.792-5.254z" mask="url(#juc0zl9cfb)"/>
                </g>
                <g transform="translate(0 21.636)">
                    <mask id="1y8hzcmi2d" fill="#fff">
                        <use xlink:href="#2vzo39ho0c"/>
                    </mask>
                    <path fill="#000" d="M25.958 40.136H14.426c-1.85.056-3.62-.762-4.777-2.209-.141-.19-.27-.39-.385-.597l-.013-.032c-.36-.676-.585-1.414-.666-2.175l-.005-.057c-.097-1.535.266-3.064 1.044-4.39l1.797-3.244 14.537-.01v12.714zM7.526 34.088l-.004.04-5.67-10.407c-1.16-2.126-1.067-4.716.243-6.754L7.38 8.725l9.16 5.371 1.25.734-7.06 11.731c-.004.005-.007.012-.012.017-.02.021-.037.045-.052.07-.004.006-.01.011-.013.017l-1.94 3.502c-.015.026-.028.053-.042.08-.692 1.173-1.082 2.493-1.144 3.841zM5.113 6.18L18.83 1.315l2.259 14.244-2.277-1.337c-.013-.01-.025-.02-.039-.028l-4.178-2.448-9.48-5.567zm21.365 20.2l-14.428.01 6.637-11.032 2.822 1.657c.08.047.17.072.264.072h.006c.027 0 .054-.002.081-.007.285-.044.479-.311.434-.596L19.76.534c-.005-.032-.013-.063-.024-.093-.096-.271-.394-.413-.665-.317L3.711 5.575c-.114.04-.21.12-.271.224-.148.247-.066.567.181.714l2.862 1.68-5.266 8.21C-.298 18.762-.406 21.758.935 24.22l7.392 13.564.009.017c.141.26.3.51.477.749 1.353 1.713 3.434 2.689 5.616 2.632h12.053c.288-.002.52-.237.517-.525V26.9c0-.288-.233-.521-.521-.521z" mask="url(#1y8hzcmi2d)"/>
                </g>
                <g transform="translate(15.364 .096)">
                    <mask id="336ayyq9vf" fill="#fff">
                        <use xlink:href="#a9v6i8k2se"/>
                    </mask>
                    <path fill="#000" d="M12.557 20.29L1.38 13.903l5.894-9.803c.764-1.357 2.023-2.365 3.515-2.814.497-.13 1.006-.192 1.513-.186.707.018 1.405.16 2.062.418.142.06.281.126.419.195 1.18.61 2.182 1.513 2.911 2.623l.12.19 2.03 3.195-7.287 12.57zM27.69 1.1c2.422 0 4.653 1.32 5.816 3.445l4.705 8.584-2.963 1.784-7.374 4.431-6.931-11.809c-.004-.011-.011-.021-.016-.032-.007-.019-.016-.037-.026-.055-.005-.01-.008-.022-.015-.031l-1.137-1.79-1.053-1.66c-.703-1.177-1.683-2.155-2.845-2.856l-.016-.01H27.69zM41.53 12.357l-2.293 14.372-13.585-4.83 2.248-1.352c.02-.008.04-.018.058-.03l3.109-1.873 10.463-6.287zm-14.555 7.528l-2.807 1.686c-.103.063-.182.16-.223.273-.095.272.047.57.318.665L39.48 27.92c.056.02.115.03.174.03h.006c.256 0 .475-.186.515-.44l2.556-16.095c.019-.121-.005-.246-.069-.351-.148-.246-.469-.326-.715-.177l-2.84 1.706-4.694-8.553C33.066 1.582 30.486.054 27.683.054H12.22c-.03 0-.057.005-.085.009-.542.008-1.084.08-1.614.22-1.753.52-3.236 1.7-4.137 3.29L.214 13.822l-.006.01c-.143.25-.055.568.195.71l12.089 6.91c.078.046.168.07.258.07.187-.001.36-.102.451-.264l7.246-12.505 6.528 11.13z" mask="url(#336ayyq9vf)"/>
                </g>
                <path fill="#FFF" d="M64.417 29.483L53.37 35.87l7.216 12.61 3.783-.147c.08-.001.16-.005.24-.008 1.222-.07 2.407-.428 3.46-1.043.226-.135.446-.281.657-.44.21-.167.407-.347.59-.539l.034-.035c.048-.05.096-.103.143-.156l.074-.088c.033-.038.065-.076.097-.116.04-.049.078-.099.116-.15l.05-.065c.111-.153.216-.311.313-.474l.002-.003c.241-.416.427-.863.553-1.328.364-1.524.115-3.13-.694-4.47l-5.587-9.936zM45.445 49.06c0-.016.003-.032.004-.048l-.038-2.646-11.007 9.318 11.27 9.206-.152-10.701-.077-5.129zM64.438 49.373c-.038.001-.075.005-.113.006l-4 .157c-.044.004-.089 0-.131-.011l-13.695.047.05 3.545.132 8.52 9.786.244c2.418.051 4.676-1.209 5.902-3.294l5.956-10.24c-.037.018-.074.034-.111.053-1.158.616-2.451.953-3.776.973M18.772 35.83c.014.008.026.019.039.028l2.277 1.337-2.26-14.245-13.715 4.865 9.48 5.567 4.18 2.448zM8.712 51.803l1.94-3.502c.003-.006.009-.011.013-.017.015-.025.033-.049.052-.07l.013-.017 7.059-11.73-1.25-.735-9.16-5.37-5.284 8.24c-1.31 2.039-1.403 4.629-.243 6.755l5.67 10.406c0-.013.003-.026.004-.04.062-1.347.452-2.667 1.144-3.84.014-.027.027-.054.042-.08M9.624 52.312c-.778 1.326-1.141 2.855-1.044 4.39l.005.056c.081.761.307 1.5.666 2.176.006.01.008.021.013.032.116.207.244.407.385.597 1.156 1.447 2.926 2.265 4.777 2.209h11.532V49.057l-14.537.01-1.797 3.245zM43.322 20.613l-.058.03-2.249 1.35 13.586 4.831 2.293-14.371-10.463 6.287-3.11 1.873zM34.059 4.063l1.053 1.66 1.138 1.79c.006.01.009.02.014.03.01.019.019.037.026.056.005.01.012.021.016.032l6.931 11.81 7.374-4.432 2.963-1.784-4.705-8.584c-1.163-2.125-3.394-3.445-5.816-3.444H31.198l.016.01c1.162.701 2.142 1.68 2.845 2.856M33.058 4.431c-.729-1.11-1.732-2.013-2.911-2.623-.137-.069-.277-.134-.419-.195-.657-.259-1.355-.4-2.062-.417-.507-.007-1.016.054-1.513.185-1.491.449-2.751 1.457-3.515 2.814l-5.894 9.803 11.177 6.389 7.286-12.571-2.03-3.194c-.038-.065-.078-.128-.119-.19"/>
            </g>
        </g>
    </g>
</svg>
