<svg xmlns="http://www.w3.org/2000/svg" width="53" height="72" viewBox="0 0 53 72">
    <g fill="none" fill-rule="evenodd">
        <g>
            <g>
                <path fill="#000" stroke="#000" d="M46.391 63.52c-4.54 4.736-11.71 7.342-20.187 7.342-8.476 0-15.645-2.606-20.187-7.334-3.41-3.5-5.205-8.263-4.95-13.143.328-7.906 10.548-23.503 16.653-31.645h.133s0 0 0 0h16.835c6.107 8.152 16.322 23.767 16.642 31.644.259 4.876-1.532 9.639-4.939 13.137h0zM16.657 14.825c.318-.317.748-.495 1.196-.497h16.785c.931.023 1.667.796 1.644 1.727-.023.918-.774 1.644-1.687 1.643H17.833c-.436-.006-.854-.18-1.164-.487-.662-.656-.668-1.724-.012-2.386h0zm-2.416-9.846c-.265-.541-.268-1.175-.006-1.718.25-.528.728-.912 1.296-1.042C22.536.639 29.806.65 36.805 2.25c.583.128 1.074.518 1.331 1.057.266.542.266 1.178 0 1.72l-4.024 8.257h-15.82l-4.05-8.307zM52.38 50.341c-.326-8.016-10.383-23.531-16.588-31.873.931-.449 1.566-1.408 1.545-2.509-.025-1.272-.919-2.321-2.103-2.6l3.84-7.873c.102-.209.179-.428.23-.655.366-1.621-.652-3.232-2.273-3.598C29.879-.4 22.452-.411 15.297 1.202c-.88.202-1.618.797-2.003 1.614-.4.83-.395 1.798.011 2.625l3.863 7.918c-1.222.29-2.121 1.4-2.096 2.707.021 1.065.65 1.972 1.549 2.404C10.418 26.798.365 42.293.025 50.341c-.268 5.164 1.632 10.205 5.241 13.908 4.74 4.937 12.176 7.655 20.938 7.655 8.763 0 16.2-2.72 20.943-7.66 3.607-3.702 5.504-8.742 5.232-13.903h0z"/>
                <path fill="#FFF" d="M34.111 13.285l4.025-8.257c.266-.542.266-1.178 0-1.72-.256-.539-.747-.929-1.33-1.057-7-1.6-14.27-1.612-21.275-.033-.568.13-1.046.514-1.296 1.042-.262.543-.26 1.177.006 1.718l4.051 8.307h15.82zM17.833 17.697h16.762c.913.001 1.664-.725 1.687-1.643.023-.93-.713-1.704-1.644-1.727H17.853c-.448.002-.878.18-1.196.497-.656.662-.65 1.73.012 2.386.31.307.728.481 1.164.487M34.688 18.74H17.854h-.134C11.615 26.882 1.395 42.48 1.067 50.385c-.255 4.88 1.54 9.644 4.95 13.143 4.542 4.728 11.711 7.334 20.187 7.334s15.647-2.606 20.187-7.341c3.407-3.498 5.198-8.26 4.94-13.137-.32-7.877-10.536-23.492-16.643-31.645"/>
            </g>
        </g>
    </g>
</svg>
