<svg xmlns="http://www.w3.org/2000/svg" width="496" height="57" viewBox="0 0 496 57">
    <g fill="none" fill-rule="evenodd">
        <g fill="#1F1F1F">
            <g>
                <path d="M23.666 17.495c4.201 0 8.004 1.727 10.76 4.523l5.967-6.06c-4.4-4.505-10.43-7.046-16.727-7.05-6.297.004-12.327 2.545-16.726 7.05C2.48 20.488-.012 26.594 0 32.951c0 6.632 2.653 12.641 6.94 16.994 4.4 4.504 10.429 7.046 16.726 7.05 6.297-.004 12.327-2.546 16.727-7.05l-5.967-6.063c-2.831 2.894-6.71 4.526-10.76 4.526s-7.928-1.632-10.76-4.526C10.041 40.967 8.44 37.04 8.45 32.952c0-4.268 1.704-8.132 4.456-10.93 2.831-2.896 6.71-4.528 10.76-4.527m44.349 31.173c-8.684 0-15.724-7.036-15.725-15.718 0-8.681 7.038-15.72 15.721-15.72 8.684 0 15.723 7.037 15.723 15.718 0 8.682-7.04 15.72-15.723 15.72m0-39.76c-13.263 0-24.053 10.787-24.053 24.044 0 13.26 10.79 24.045 24.057 24.045s24.057-10.785 24.057-24.045c0-13.257-10.794-24.045-24.057-24.045m31.184 47.498h8.912V9.499H99.2v46.906zm28.112-44.413c-3.168-2.017-6.847-3.088-10.603-3.085-1.348 0-2.637.187-3.844.493v8.649c3.377-1.056 7.056-.442 9.908 1.652 2.853 2.095 4.539 5.42 4.542 8.959v27.15h8.716V28.758c0-3.397-.375-6.75-2.035-9.702-1.614-2.868-3.91-5.294-6.684-7.064m28.507 0c-3.171-2.018-6.852-3.088-10.61-3.085-4.004 0-7.539 1.677-9.774 3.146 1.204 1.354 2.262 2.833 3.15 4.411.425.755.783 1.517 1.089 2.279 1.559-.796 3.284-1.21 5.034-1.208 6.138.012 11.108 4.986 11.114 11.121V55.81h8.722V28.758c0-3.397-.374-6.75-2.034-9.702-1.617-2.868-3.915-5.294-6.691-7.064m28.513 0c-3.172-2.018-6.854-3.089-10.613-3.085-4 0-7.539 1.677-9.77 3.146 1.204 1.354 2.262 2.833 3.15 4.411.425.755.782 1.517 1.085 2.279 1.559-.796 3.284-1.21 5.035-1.208 6.139.008 11.113 4.984 11.116 11.121V55.81h8.72V28.758c0-3.397-.375-6.75-2.032-9.702-1.616-2.869-3.914-5.295-6.69-7.064m171.186 36.676c-6.36 0-12.093-3.83-14.527-9.705-2.433-5.874-1.087-12.636 3.41-17.13 4.498-4.496 11.26-5.84 17.136-3.406 5.875 2.434 9.705 8.167 9.704 14.525-.002 8.68-7.041 15.716-15.723 15.716m0-39.76c-13.267 0-24.058 10.787-24.058 24.044 0 13.26 10.79 24.045 24.058 24.045 13.267 0 24.057-10.785 24.057-24.045 0-13.257-10.794-24.045-24.057-24.045M224.24 48.667c-6.36.002-12.094-3.828-14.529-9.702-2.434-5.875-1.088-12.637 3.41-17.133 4.497-4.496 11.261-5.84 17.137-3.405 5.875 2.435 9.705 8.17 9.702 14.528-.002 8.68-7.04 15.716-15.723 15.716m0-39.76c-13.267 0-24.057 10.784-24.057 24.044S210.97 57 224.237 57s24.057-10.784 24.057-24.045c0-13.26-10.793-24.044-24.057-24.044m269.695 10.158c-1.655-2.882-3.996-5.312-6.814-7.074-3.24-2.023-6.984-3.093-10.804-3.088-5.518 0-10.158 3.071-11.828 4.55v-4.19h-8.878V55.81h8.878V28.684c0-6.142 5.079-11.138 11.318-11.138 6.242 0 11.317 4.996 11.317 11.138V55.81H496V28.782c0-3.4-.381-6.76-2.068-9.713m-208.184-7.074c-3.24-2.023-6.984-3.093-10.804-3.088-5.518 0-10.158 3.071-11.828 4.55v-4.19h-8.879V55.81h8.879V28.684c0-6.142 5.079-11.138 11.317-11.138 6.243 0 11.318 4.996 11.318 11.138V55.81h8.879V28.782c0-3.4-.381-6.76-2.072-9.713-1.654-2.881-3.993-5.311-6.81-7.074M316.728 0h-8.72v9.38h-6.844v7.149h6.845V44.33c-.002 3.2 1.267 6.269 3.529 8.532 2.262 2.264 5.33 3.537 8.53 3.538h5.647v-8.726h-4.963c-2.222 0-4.025-1.803-4.025-4.027V16.532h9.386V9.38h-9.386V0zM430.74 42.706L420.399 9.499h-8.586l-10.341 33.207-10.341-33.207h-8.586l14.61 46.906h8.634l10.317-33.125 10.318 33.125h8.634l14.61-46.906h-8.586l-10.341 33.207z" transform="translate(-352.000000, -850.000000) translate(352.000000, 850.000000)"/>
            </g>
        </g>
    </g>
</svg>
